<?xml version="1.0" standalone="no"?>
<!DOCTYPE svg PUBLIC "-//W3C//DTD SVG 20010904//EN"
 "http://www.w3.org/TR/2001/REC-SVG-20010904/DTD/svg10.dtd">
<svg version="1.0" xmlns="http://www.w3.org/2000/svg"
 width="408.000000pt" height="612.000000pt" viewBox="0 0 408.000000 612.000000"
 preserveAspectRatio="xMidYMid meet">

<g transform="translate(0.000000,612.000000) scale(0.100000,-0.100000)"
fill="#000000" stroke="none">
<path d="M1800 5753 c-106 -18 -330 -104 -330 -126 0 -10 -57 -93 -82 -118 -9
-10 -14 -26 -11 -37 6 -25 -13 -38 -21 -15 -12 30 -26 -6 -27 -67 -1 -86 -18
-120 -80 -161 -159 -106 -244 -351 -191 -552 26 -96 31 -104 78 -137 22 -14
41 -34 43 -45 2 -10 9 -25 17 -33 8 -7 14 -19 14 -27 0 -7 11 -36 25 -63 14
-28 25 -59 25 -71 0 -12 4 -21 9 -21 5 0 9 33 10 73 0 122 38 328 62 343 5 3
9 18 9 34 0 16 5 41 11 57 7 15 15 46 20 68 19 96 29 135 37 152 6 10 20 43
33 73 36 87 60 113 115 128 27 8 78 28 113 44 57 27 83 36 156 53 11 3 35 0
53 -6 25 -8 36 -8 47 1 8 7 15 9 15 4 0 -5 22 -10 48 -11 51 -2 282 -87 282
-104 0 -5 6 -9 14 -9 8 0 28 -13 45 -29 16 -15 32 -24 33 -19 2 5 24 -9 48
-31 25 -23 49 -41 54 -41 4 0 6 -7 2 -15 -3 -9 0 -15 9 -15 14 0 41 -65 37
-87 -2 -7 4 -28 12 -48 8 -19 11 -35 6 -35 -9 0 6 -56 20 -75 4 -5 11 -24 14
-42 4 -17 14 -37 22 -44 8 -6 14 -18 14 -25 0 -7 11 -39 25 -70 14 -31 29 -93
35 -142 14 -112 19 -132 35 -132 7 0 15 -4 17 -9 2 -5 12 -3 22 4 15 11 16 17
7 28 -11 14 -6 47 9 47 4 0 19 29 35 65 29 70 48 83 105 71 18 -3 30 -1 30 5
0 6 9 23 20 39 35 49 44 120 31 254 -6 67 -21 150 -32 186 -19 62 -77 199 -89
210 -3 3 -14 22 -25 43 -22 43 -144 163 -251 249 -39 31 -78 63 -85 70 -29 26
-185 107 -249 128 -76 26 -367 47 -450 33z"/>
<path d="M2235 4746 c-49 -13 -67 -25 -60 -36 9 -14 91 -5 118 13 45 29 115
23 191 -18 42 -23 42 -12 0 20 -33 26 -46 29 -123 30 -47 1 -104 -3 -126 -9z"/>
<path d="M1443 4732 c-10 -9 -30 -30 -43 -47 l-25 -29 40 29 c31 23 50 30 85
29 69 -1 128 -8 124 -15 -2 -4 13 -7 34 -7 40 1 60 -3 80 -16 28 -17 25 7 -3
30 -34 27 -52 31 -182 38 -77 5 -94 3 -110 -12z"/>
<path d="M2196 4600 c-44 -13 -98 -70 -67 -70 6 0 22 11 37 25 34 32 39 31 54
-5 12 -28 16 -30 49 -24 20 3 43 15 53 25 16 18 17 18 47 2 28 -17 32 -17 47
-2 15 16 12 18 -40 38 -58 22 -129 26 -180 11z"/>
<path d="M1567 4588 c-51 -11 -77 -26 -77 -43 0 -10 11 -15 32 -15 17 0 29 3
25 6 -6 6 16 34 26 34 3 0 8 -13 12 -30 6 -27 10 -30 47 -28 33 1 44 7 57 29
l17 28 32 -19 c18 -11 35 -20 39 -20 10 0 -30 41 -51 52 -25 14 -110 17 -159
6z"/>
<path d="M2846 4501 c-4 -5 3 -7 14 -4 23 6 26 13 6 13 -8 0 -17 -4 -20 -9z"/>
<path d="M1120 4450 c8 -5 22 -10 30 -10 13 0 13 1 0 10 -8 5 -22 10 -30 10
-13 0 -13 -1 0 -10z"/>
<path d="M2682 4190 c-7 -11 -9 -20 -4 -20 4 0 13 9 20 20 7 11 9 20 4 20 -4
0 -13 -9 -20 -20z"/>
<path d="M1795 4180 c-4 -6 9 -10 32 -10 28 0 34 3 23 10 -20 13 -47 13 -55 0z"/>
<path d="M1990 4176 c-10 -13 -7 -13 20 -3 26 10 36 9 61 -6 33 -18 65 -22 73
-9 3 5 -7 7 -23 4 -17 -2 -32 2 -40 12 -17 20 -75 21 -91 2z"/>
<path d="M1768 4153 c7 -3 16 -2 19 1 4 3 -2 6 -13 5 -11 0 -14 -3 -6 -6z"/>
<path d="M1755 3970 c-56 -6 -68 -28 -24 -44 30 -10 83 0 74 14 -3 6 1 7 9 4
9 -3 16 -2 16 4 0 11 253 9 289 -3 11 -3 21 -13 21 -22 0 -12 7 -14 32 -9 37
7 78 32 78 46 0 12 -4 12 -255 14 -104 1 -212 -1 -240 -4z"/>
<path d="M2485 3695 c-16 -14 -95 -57 -175 -96 -138 -68 -149 -72 -260 -86
-65 -8 -139 -11 -169 -8 -51 6 -283 86 -307 106 -14 11 -24 1 -24 -23 0 -32
59 -80 170 -139 43 -23 52 -23 252 -22 245 2 283 11 408 88 47 29 99 59 115
66 41 18 45 26 45 87 0 60 -9 64 -55 27z"/>
<path d="M1480 3473 c-46 -20 -77 -55 -85 -95 -23 -113 -60 -255 -70 -265 -7
-6 -43 -22 -81 -34 -38 -12 -78 -26 -89 -30 -11 -4 -38 -13 -60 -19 -104 -31
-464 -165 -570 -213 -109 -49 -188 -114 -361 -298 -72 -77 -97 -116 -118 -189
-48 -166 -46 -114 -46 -1256 l0 -1074 2040 0 2040 0 0 973 c0 558 -4 995 -9
1027 -44 255 -54 296 -89 373 -97 212 -177 318 -292 385 -25 14 -47 29 -50 32
-18 20 -180 91 -340 150 -89 33 -257 98 -285 110 -27 12 -235 70 -251 70 -33
0 -61 25 -83 73 -13 29 -44 101 -70 161 -48 112 -71 141 -71 88 0 -45 -35
-140 -98 -272 -34 -69 -153 -195 -296 -312 l-109 -90 -46 7 c-30 5 -59 19 -88
42 -60 49 -269 275 -286 310 -30 60 -56 172 -62 266 -8 108 -9 109 -75 80z
m550 -1397 c0 -2 -9 -6 -20 -9 -11 -3 -18 -1 -14 4 5 9 34 13 34 5z m27 -962
c-3 -3 -12 -4 -19 -1 -8 3 -5 6 6 6 11 1 17 -2 13 -5z"/>
</g>
</svg>
